<svg width="1282" height="201" viewBox="0 0 1282 201" fill="none" xmlns="http://www.w3.org/2000/svg">
<circle cx="105.064" cy="100.523" r="65.2328" stroke="#181818" stroke-width="9.40432"/>
<path fill-rule="evenodd" clip-rule="evenodd" d="M104.37 36.7583C69.1549 36.7583 40.6074 65.3058 40.6074 100.521C40.6074 135.736 69.1549 164.284 104.37 164.284H105.067V36.7583H104.37ZM49.6783 96.1096C55.4623 89.6983 62.8264 84.4506 71.2453 82.7084C79.8303 80.9318 89.0262 82.9064 98.007 90.0677L93.3164 95.95C85.9136 90.0469 78.9608 88.7946 72.7699 90.0757C66.4127 91.3913 60.3735 95.486 55.2645 101.149L49.6783 96.1096Z" fill="#181818"/>
<path fill-rule="evenodd" clip-rule="evenodd" d="M139.615 82.7048C148.034 84.447 155.398 89.6946 161.182 96.106L155.596 101.146C150.487 95.4824 144.448 91.3877 138.091 90.0721C131.9 88.791 124.947 90.0433 117.544 95.9463L112.853 90.064C121.834 82.9028 131.03 80.9282 139.615 82.7048Z" fill="#181818"/>
<path d="M66.2809 102.519L105.497 170.444H27.0644L66.2809 102.519Z" fill="#181818"/>
<path d="M304.864 85.3372H287.864C287.379 82.5493 286.485 80.0796 285.182 77.9281C283.879 75.7463 282.258 73.8978 280.318 72.3827C278.379 70.8675 276.167 69.7312 273.682 68.9736C271.227 68.1857 268.576 67.7918 265.727 67.7918C260.667 67.7918 256.182 69.0645 252.273 71.6099C248.364 74.1251 245.303 77.8221 243.091 82.7009C240.879 87.5493 239.773 93.4736 239.773 100.474C239.773 107.595 240.879 113.595 243.091 118.474C245.333 123.322 248.394 126.989 252.273 129.474C256.182 131.928 260.652 133.155 265.682 133.155C268.47 133.155 271.076 132.792 273.5 132.064C275.955 131.307 278.152 130.201 280.091 128.746C282.061 127.292 283.712 125.504 285.045 123.383C286.409 121.261 287.348 118.837 287.864 116.11L304.864 116.201C304.227 120.625 302.848 124.777 300.727 128.655C298.636 132.534 295.894 135.958 292.5 138.928C289.106 141.868 285.136 144.171 280.591 145.837C276.045 147.474 271 148.292 265.455 148.292C257.273 148.292 249.97 146.398 243.545 142.61C237.121 138.822 232.061 133.352 228.364 126.201C224.667 119.049 222.818 110.474 222.818 100.474C222.818 90.4433 224.682 81.8675 228.409 74.7463C232.136 67.5948 237.212 62.1251 243.636 58.3372C250.061 54.5493 257.333 52.6554 265.455 52.6554C270.636 52.6554 275.455 53.3827 279.909 54.8372C284.364 56.2918 288.333 58.4281 291.818 61.2463C295.303 64.0342 298.167 67.4584 300.409 71.519C302.682 75.5493 304.167 80.1554 304.864 85.3372ZM348.754 148.383C341.936 148.383 336.027 146.883 331.027 143.883C326.027 140.883 322.148 136.686 319.39 131.292C316.663 125.898 315.3 119.595 315.3 112.383C315.3 105.171 316.663 98.8524 319.39 93.4281C322.148 88.0039 326.027 83.7918 331.027 80.7918C336.027 77.7918 341.936 76.2918 348.754 76.2918C355.572 76.2918 361.481 77.7918 366.481 80.7918C371.481 83.7918 375.345 88.0039 378.072 93.4281C380.83 98.8524 382.209 105.171 382.209 112.383C382.209 119.595 380.83 125.898 378.072 131.292C375.345 136.686 371.481 140.883 366.481 143.883C361.481 146.883 355.572 148.383 348.754 148.383ZM348.845 135.201C352.542 135.201 355.633 134.186 358.118 132.155C360.603 130.095 362.451 127.337 363.663 123.883C364.906 120.428 365.527 116.58 365.527 112.337C365.527 108.064 364.906 104.201 363.663 100.746C362.451 97.2615 360.603 94.4887 358.118 92.4281C355.633 90.3675 352.542 89.3372 348.845 89.3372C345.057 89.3372 341.906 90.3675 339.39 92.4281C336.906 94.4887 335.042 97.2615 333.8 100.746C332.587 104.201 331.981 108.064 331.981 112.337C331.981 116.58 332.587 120.428 333.8 123.883C335.042 127.337 336.906 130.095 339.39 132.155C341.906 134.186 345.057 135.201 348.845 135.201ZM394.895 147.019V77.2009H410.622V89.0645H411.44C412.895 85.0645 415.304 81.9433 418.667 79.7009C422.031 77.4281 426.046 76.2918 430.713 76.2918C435.44 76.2918 439.425 77.4433 442.667 79.7463C445.94 82.019 448.243 85.1251 449.576 89.0645H450.304C451.849 85.1857 454.455 82.0948 458.122 79.7918C461.819 77.4584 466.198 76.2918 471.258 76.2918C477.682 76.2918 482.925 78.3221 486.985 82.3827C491.046 86.4433 493.076 92.3675 493.076 100.155V147.019H476.576V102.701C476.576 98.3675 475.425 95.2009 473.122 93.2009C470.819 91.1706 468.001 90.1554 464.667 90.1554C460.698 90.1554 457.592 91.3978 455.349 93.8827C453.137 96.3372 452.031 99.5342 452.031 103.474V147.019H435.895V102.019C435.895 98.413 434.804 95.5342 432.622 93.3827C430.47 91.2312 427.652 90.1554 424.167 90.1554C421.804 90.1554 419.652 90.7615 417.713 91.9736C415.773 93.1554 414.228 94.8372 413.076 97.019C411.925 99.1706 411.349 101.686 411.349 104.564V147.019H394.895ZM508.49 147.019V77.2009H524.217V89.0645H525.035C526.49 85.0645 528.899 81.9433 532.262 79.7009C535.626 77.4281 539.641 76.2918 544.308 76.2918C549.035 76.2918 553.02 77.4433 556.262 79.7463C559.535 82.019 561.838 85.1251 563.171 89.0645H563.899C565.444 85.1857 568.05 82.0948 571.717 79.7918C575.414 77.4584 579.793 76.2918 584.853 76.2918C591.277 76.2918 596.52 78.3221 600.58 82.3827C604.641 86.4433 606.671 92.3675 606.671 100.155V147.019H590.171V102.701C590.171 98.3675 589.02 95.2009 586.717 93.2009C584.414 91.1706 581.596 90.1554 578.262 90.1554C574.293 90.1554 571.187 91.3978 568.944 93.8827C566.732 96.3372 565.626 99.5342 565.626 103.474V147.019H549.49V102.019C549.49 98.413 548.399 95.5342 546.217 93.3827C544.065 91.2312 541.247 90.1554 537.762 90.1554C535.399 90.1554 533.247 90.7615 531.308 91.9736C529.368 93.1554 527.823 94.8372 526.671 97.019C525.52 99.1706 524.944 101.686 524.944 104.564V147.019H508.49ZM652.539 148.383C645.721 148.383 639.812 146.883 634.812 143.883C629.812 140.883 625.933 136.686 623.175 131.292C620.448 125.898 619.085 119.595 619.085 112.383C619.085 105.171 620.448 98.8524 623.175 93.4281C625.933 88.0039 629.812 83.7918 634.812 80.7918C639.812 77.7918 645.721 76.2918 652.539 76.2918C659.357 76.2918 665.266 77.7918 670.266 80.7918C675.266 83.7918 679.13 88.0039 681.857 93.4281C684.615 98.8524 685.994 105.171 685.994 112.383C685.994 119.595 684.615 125.898 681.857 131.292C679.13 136.686 675.266 140.883 670.266 143.883C665.266 146.883 659.357 148.383 652.539 148.383ZM652.63 135.201C656.327 135.201 659.418 134.186 661.903 132.155C664.388 130.095 666.236 127.337 667.448 123.883C668.691 120.428 669.312 116.58 669.312 112.337C669.312 108.064 668.691 104.201 667.448 100.746C666.236 97.2615 664.388 94.4887 661.903 92.4281C659.418 90.3675 656.327 89.3372 652.63 89.3372C648.842 89.3372 645.691 90.3675 643.175 92.4281C640.691 94.4887 638.827 97.2615 637.585 100.746C636.372 104.201 635.766 108.064 635.766 112.337C635.766 116.58 636.372 120.428 637.585 123.883C638.827 127.337 640.691 130.095 643.175 132.155C645.691 134.186 648.842 135.201 652.63 135.201ZM715.134 106.11V147.019H698.68V77.2009H714.407V89.0645H715.225C716.831 85.1554 719.392 82.0493 722.907 79.7463C726.452 77.4433 730.831 76.2918 736.043 76.2918C740.861 76.2918 745.058 77.3221 748.634 79.3827C752.24 81.4433 755.028 84.4281 756.998 88.3372C758.998 92.2463 759.983 96.9887 759.952 102.564V147.019H743.498V105.11C743.498 100.443 742.286 96.7918 739.861 94.1554C737.467 91.519 734.149 90.2009 729.907 90.2009C727.028 90.2009 724.467 90.8372 722.225 92.11C720.013 93.3524 718.27 95.1554 716.998 97.519C715.755 99.8827 715.134 102.746 715.134 106.11ZM868.96 83.6554C868.203 81.2009 867.157 79.0039 865.824 77.0645C864.521 75.0948 862.945 73.413 861.097 72.019C859.279 70.6251 857.188 69.5796 854.824 68.8827C852.46 68.1554 849.885 67.7918 847.097 67.7918C842.097 67.7918 837.642 69.0493 833.733 71.5645C829.824 74.0796 826.748 77.7766 824.506 82.6554C822.294 87.5039 821.188 93.413 821.188 100.383C821.188 107.413 822.294 113.368 824.506 118.246C826.718 123.125 829.794 126.837 833.733 129.383C837.673 131.898 842.248 133.155 847.46 133.155C852.188 133.155 856.279 132.246 859.733 130.428C863.218 128.61 865.9 126.034 867.779 122.701C869.657 119.337 870.597 115.398 870.597 110.883L874.415 111.474H849.142V98.2918H886.915V109.474C886.915 117.443 885.218 124.337 881.824 130.155C878.43 135.974 873.763 140.458 867.824 143.61C861.885 146.731 855.066 148.292 847.37 148.292C838.794 148.292 831.263 146.368 824.779 142.519C818.324 138.64 813.279 133.14 809.642 126.019C806.036 118.868 804.233 110.383 804.233 100.564C804.233 93.0493 805.294 86.3372 807.415 80.4281C809.566 74.519 812.566 69.5039 816.415 65.3827C820.263 61.2312 824.779 58.0796 829.96 55.9281C835.142 53.7463 840.779 52.6554 846.87 52.6554C852.021 52.6554 856.824 53.413 861.279 54.9281C865.733 56.413 869.688 58.5342 873.142 61.2918C876.627 64.0493 879.491 67.3221 881.733 71.1099C883.976 74.8978 885.445 79.0796 886.142 83.6554H868.96ZM901.215 147.019V77.2009H917.169V88.8372H917.896C919.169 84.8069 921.351 81.7009 924.442 79.519C927.563 77.3069 931.124 76.2009 935.124 76.2009C936.033 76.2009 937.048 76.2463 938.169 76.3372C939.321 76.3978 940.275 76.5039 941.033 76.6554V91.7918C940.336 91.5493 939.23 91.3372 937.715 91.1554C936.23 90.9433 934.79 90.8372 933.396 90.8372C930.396 90.8372 927.699 91.4887 925.305 92.7918C922.942 94.0645 921.078 95.8372 919.715 98.11C918.351 100.383 917.669 103.004 917.669 105.974V147.019H901.215ZM978.264 148.383C971.446 148.383 965.537 146.883 960.537 143.883C955.537 140.883 951.658 136.686 948.9 131.292C946.173 125.898 944.81 119.595 944.81 112.383C944.81 105.171 946.173 98.8524 948.9 93.4281C951.658 88.0039 955.537 83.7918 960.537 80.7918C965.537 77.7918 971.446 76.2918 978.264 76.2918C985.082 76.2918 990.991 77.7918 995.991 80.7918C1000.99 83.7918 1004.85 88.0039 1007.58 93.4281C1010.34 98.8524 1011.72 105.171 1011.72 112.383C1011.72 119.595 1010.34 125.898 1007.58 131.292C1004.85 136.686 1000.99 140.883 995.991 143.883C990.991 146.883 985.082 148.383 978.264 148.383ZM978.355 135.201C982.052 135.201 985.143 134.186 987.628 132.155C990.113 130.095 991.961 127.337 993.173 123.883C994.416 120.428 995.037 116.58 995.037 112.337C995.037 108.064 994.416 104.201 993.173 100.746C991.961 97.2615 990.113 94.4887 987.628 92.4281C985.143 90.3675 982.052 89.3372 978.355 89.3372C974.567 89.3372 971.416 90.3675 968.9 92.4281C966.416 94.4887 964.552 97.2615 963.31 100.746C962.097 104.201 961.491 108.064 961.491 112.337C961.491 116.58 962.097 120.428 963.31 123.883C964.552 127.337 966.416 130.095 968.9 132.155C971.416 134.186 974.567 135.201 978.355 135.201ZM1068.9 117.655V77.2009H1085.36V147.019H1069.4V134.61H1068.68C1067.1 138.519 1064.51 141.716 1060.9 144.201C1057.33 146.686 1052.92 147.928 1047.68 147.928C1043.1 147.928 1039.06 146.913 1035.54 144.883C1032.06 142.822 1029.33 139.837 1027.36 135.928C1025.39 131.989 1024.4 127.231 1024.4 121.655V77.2009H1040.86V119.11C1040.86 123.534 1042.07 127.049 1044.5 129.655C1046.92 132.261 1050.1 133.564 1054.04 133.564C1056.47 133.564 1058.81 132.974 1061.09 131.792C1063.36 130.61 1065.22 128.852 1066.68 126.519C1068.16 124.155 1068.9 121.201 1068.9 117.655ZM1117.45 106.11V147.019H1101V77.2009H1116.73V89.0645H1117.54C1119.15 85.1554 1121.71 82.0493 1125.23 79.7463C1128.77 77.4433 1133.15 76.2918 1138.36 76.2918C1143.18 76.2918 1147.38 77.3221 1150.95 79.3827C1154.56 81.4433 1157.35 84.4281 1159.32 88.3372C1161.32 92.2463 1162.3 96.9887 1162.27 102.564V147.019H1145.82V105.11C1145.82 100.443 1144.61 96.7918 1142.18 94.1554C1139.79 91.519 1136.47 90.2009 1132.23 90.2009C1129.35 90.2009 1126.79 90.8372 1124.54 92.11C1122.33 93.3524 1120.59 95.1554 1119.32 97.519C1118.08 99.8827 1117.45 102.746 1117.45 106.11ZM1203.63 148.246C1198.14 148.246 1193.23 146.837 1188.9 144.019C1184.57 141.201 1181.14 137.11 1178.63 131.746C1176.11 126.383 1174.86 119.868 1174.86 112.201C1174.86 104.443 1176.13 97.8978 1178.67 92.5645C1181.25 87.2009 1184.72 83.1554 1189.08 80.4281C1193.45 77.6706 1198.31 76.2918 1203.67 76.2918C1207.77 76.2918 1211.13 76.9887 1213.77 78.3827C1216.4 79.7463 1218.49 81.3978 1220.04 83.3372C1221.58 85.2463 1222.78 87.0493 1223.63 88.7463H1224.31V53.9281H1240.81V147.019H1224.63V136.019H1223.63C1222.78 137.716 1221.55 139.519 1219.95 141.428C1218.34 143.307 1216.22 144.913 1213.58 146.246C1210.95 147.58 1207.63 148.246 1203.63 148.246ZM1208.22 134.746C1211.7 134.746 1214.67 133.807 1217.13 131.928C1219.58 130.019 1221.45 127.368 1222.72 123.974C1223.99 120.58 1224.63 116.625 1224.63 112.11C1224.63 107.595 1223.99 103.671 1222.72 100.337C1221.48 97.0039 1219.63 94.413 1217.17 92.5645C1214.75 90.716 1211.77 89.7918 1208.22 89.7918C1204.55 89.7918 1201.49 90.7463 1199.04 92.6554C1196.58 94.5645 1194.73 97.2009 1193.49 100.564C1192.25 103.928 1191.63 107.777 1191.63 112.11C1191.63 116.474 1192.25 120.368 1193.49 123.792C1194.77 127.186 1196.63 129.868 1199.08 131.837C1201.57 133.777 1204.61 134.746 1208.22 134.746Z" fill="#181818"/>
</svg>
