<svg width="150" height="150" viewBox="0 0 150 150" fill="none" xmlns="http://www.w3.org/2000/svg">
<g clip-path="url(#clip0_197_3252)">
<circle cx="79.1795" cy="74.8798" r="65.234" stroke="#F2F4F7" stroke-width="9.4045"/>
<path fill-rule="evenodd" clip-rule="evenodd" d="M78.486 11.1141C43.2702 11.1141 14.7222 39.6622 14.7222 74.878C14.7222 110.094 43.2702 138.642 78.4861 138.642H79.1827V11.1141H78.486ZM23.7932 70.4667C29.5773 64.0552 36.9415 58.8074 45.3606 57.0652C53.9458 55.2886 63.1419 57.2632 72.1228 64.4246L67.4322 70.307C60.0292 64.4039 53.0763 63.1515 46.8852 64.4327C40.5279 65.7483 34.4885 69.8431 29.3795 75.5063L23.7932 70.4667Z" fill="#F2F4F7"/>
<path fill-rule="evenodd" clip-rule="evenodd" d="M113.731 57.0616C122.151 58.8038 129.515 64.0516 135.299 70.4631L129.713 75.5027C124.603 69.8395 118.564 65.7447 112.207 64.4291C106.016 63.1479 99.0628 64.4003 91.6599 70.3034L86.9693 64.421C95.9502 57.2596 105.146 55.285 113.731 57.0616Z" fill="#F2F4F7"/>
<path d="M40.3956 76.876L79.6128 144.802H1.17826L40.3956 76.876Z" fill="#F2F4F7"/>
</g>
<defs>
<clipPath id="clip0_197_3252">
<rect width="150" height="150" fill="white"/>
</clipPath>
</defs>
</svg>
