<svg width="1282" height="200" viewBox="0 0 1282 200" fill="none" xmlns="http://www.w3.org/2000/svg">
<circle cx="105.064" cy="100.004" r="65.2328" stroke="#F2F4F7" stroke-width="9.40432"/>
<path fill-rule="evenodd" clip-rule="evenodd" d="M104.37 36.2393C69.1549 36.2393 40.6074 64.7868 40.6074 100.002C40.6074 135.217 69.1549 163.765 104.37 163.765H105.067V36.2393H104.37ZM49.6783 95.5905C55.4623 89.1792 62.8264 83.9315 71.2453 82.1893C79.8303 80.4128 89.0262 82.3874 98.007 89.5486L93.3164 95.4309C85.9136 89.5279 78.9608 88.2756 72.7699 89.5567C66.4127 90.8722 60.3735 94.967 55.2645 100.63L49.6783 95.5905Z" fill="#F2F4F7"/>
<path fill-rule="evenodd" clip-rule="evenodd" d="M139.615 82.1857C148.034 83.9279 155.398 89.1756 161.182 95.5869L155.596 100.626C150.487 94.9633 144.448 90.8686 138.091 89.5531C131.9 88.2719 124.947 89.5243 117.544 95.4273L112.853 89.545C121.834 82.3838 131.03 80.4091 139.615 82.1857Z" fill="#F2F4F7"/>
<path d="M66.2809 102L105.497 169.925H27.0644L66.2809 102Z" fill="#F2F4F7"/>
<path d="M304.864 84.8182H287.864C287.379 82.0303 286.485 79.5606 285.182 77.4091C283.879 75.2273 282.258 73.3788 280.318 71.8636C278.379 70.3485 276.167 69.2121 273.682 68.4545C271.227 67.6667 268.576 67.2727 265.727 67.2727C260.667 67.2727 256.182 68.5455 252.273 71.0909C248.364 73.6061 245.303 77.303 243.091 82.1818C240.879 87.0303 239.773 92.9545 239.773 99.9545C239.773 107.076 240.879 113.076 243.091 117.955C245.333 122.803 248.394 126.47 252.273 128.955C256.182 131.409 260.652 132.636 265.682 132.636C268.47 132.636 271.076 132.273 273.5 131.545C275.955 130.788 278.152 129.682 280.091 128.227C282.061 126.773 283.712 124.985 285.045 122.864C286.409 120.742 287.348 118.318 287.864 115.591L304.864 115.682C304.227 120.106 302.848 124.258 300.727 128.136C298.636 132.015 295.894 135.439 292.5 138.409C289.106 141.348 285.136 143.652 280.591 145.318C276.045 146.955 271 147.773 265.455 147.773C257.273 147.773 249.97 145.879 243.545 142.091C237.121 138.303 232.061 132.833 228.364 125.682C224.667 118.53 222.818 109.955 222.818 99.9545C222.818 89.9242 224.682 81.3485 228.409 74.2273C232.136 67.0758 237.212 61.6061 243.636 57.8182C250.061 54.0303 257.333 52.1364 265.455 52.1364C270.636 52.1364 275.455 52.8636 279.909 54.3182C284.364 55.7727 288.333 57.9091 291.818 60.7273C295.303 63.5151 298.167 66.9394 300.409 71C302.682 75.0303 304.167 79.6364 304.864 84.8182ZM348.754 147.864C341.936 147.864 336.027 146.364 331.027 143.364C326.027 140.364 322.148 136.167 319.39 130.773C316.663 125.379 315.3 119.076 315.3 111.864C315.3 104.652 316.663 98.3333 319.39 92.9091C322.148 87.4848 326.027 83.2727 331.027 80.2727C336.027 77.2727 341.936 75.7727 348.754 75.7727C355.572 75.7727 361.481 77.2727 366.481 80.2727C371.481 83.2727 375.345 87.4848 378.072 92.9091C380.83 98.3333 382.209 104.652 382.209 111.864C382.209 119.076 380.83 125.379 378.072 130.773C375.345 136.167 371.481 140.364 366.481 143.364C361.481 146.364 355.572 147.864 348.754 147.864ZM348.845 134.682C352.542 134.682 355.633 133.667 358.118 131.636C360.603 129.576 362.451 126.818 363.663 123.364C364.906 119.909 365.527 116.061 365.527 111.818C365.527 107.545 364.906 103.682 363.663 100.227C362.451 96.7424 360.603 93.9697 358.118 91.9091C355.633 89.8485 352.542 88.8182 348.845 88.8182C345.057 88.8182 341.906 89.8485 339.39 91.9091C336.906 93.9697 335.042 96.7424 333.8 100.227C332.587 103.682 331.981 107.545 331.981 111.818C331.981 116.061 332.587 119.909 333.8 123.364C335.042 126.818 336.906 129.576 339.39 131.636C341.906 133.667 345.057 134.682 348.845 134.682ZM394.895 146.5V76.6818H410.622V88.5455H411.44C412.895 84.5455 415.304 81.4242 418.667 79.1818C422.031 76.9091 426.046 75.7727 430.713 75.7727C435.44 75.7727 439.425 76.9242 442.667 79.2273C445.94 81.5 448.243 84.6061 449.576 88.5455H450.304C451.849 84.6667 454.455 81.5758 458.122 79.2727C461.819 76.9394 466.198 75.7727 471.258 75.7727C477.682 75.7727 482.925 77.803 486.985 81.8636C491.046 85.9242 493.076 91.8485 493.076 99.6364V146.5H476.576V102.182C476.576 97.8485 475.425 94.6818 473.122 92.6818C470.819 90.6515 468.001 89.6364 464.667 89.6364C460.698 89.6364 457.592 90.8788 455.349 93.3636C453.137 95.8182 452.031 99.0151 452.031 102.955V146.5H435.895V101.5C435.895 97.8939 434.804 95.0152 432.622 92.8636C430.47 90.7121 427.652 89.6364 424.167 89.6364C421.804 89.6364 419.652 90.2424 417.713 91.4545C415.773 92.6364 414.228 94.3182 413.076 96.5C411.925 98.6515 411.349 101.167 411.349 104.045V146.5H394.895ZM508.49 146.5V76.6818H524.217V88.5455H525.035C526.49 84.5455 528.899 81.4242 532.262 79.1818C535.626 76.9091 539.641 75.7727 544.308 75.7727C549.035 75.7727 553.02 76.9242 556.262 79.2273C559.535 81.5 561.838 84.6061 563.171 88.5455H563.899C565.444 84.6667 568.05 81.5758 571.717 79.2727C575.414 76.9394 579.793 75.7727 584.853 75.7727C591.277 75.7727 596.52 77.803 600.58 81.8636C604.641 85.9242 606.671 91.8485 606.671 99.6364V146.5H590.171V102.182C590.171 97.8485 589.02 94.6818 586.717 92.6818C584.414 90.6515 581.596 89.6364 578.262 89.6364C574.293 89.6364 571.187 90.8788 568.944 93.3636C566.732 95.8182 565.626 99.0151 565.626 102.955V146.5H549.49V101.5C549.49 97.8939 548.399 95.0152 546.217 92.8636C544.065 90.7121 541.247 89.6364 537.762 89.6364C535.399 89.6364 533.247 90.2424 531.308 91.4545C529.368 92.6364 527.823 94.3182 526.671 96.5C525.52 98.6515 524.944 101.167 524.944 104.045V146.5H508.49ZM652.539 147.864C645.721 147.864 639.812 146.364 634.812 143.364C629.812 140.364 625.933 136.167 623.175 130.773C620.448 125.379 619.085 119.076 619.085 111.864C619.085 104.652 620.448 98.3333 623.175 92.9091C625.933 87.4848 629.812 83.2727 634.812 80.2727C639.812 77.2727 645.721 75.7727 652.539 75.7727C659.357 75.7727 665.266 77.2727 670.266 80.2727C675.266 83.2727 679.13 87.4848 681.857 92.9091C684.615 98.3333 685.994 104.652 685.994 111.864C685.994 119.076 684.615 125.379 681.857 130.773C679.13 136.167 675.266 140.364 670.266 143.364C665.266 146.364 659.357 147.864 652.539 147.864ZM652.63 134.682C656.327 134.682 659.418 133.667 661.903 131.636C664.388 129.576 666.236 126.818 667.448 123.364C668.691 119.909 669.312 116.061 669.312 111.818C669.312 107.545 668.691 103.682 667.448 100.227C666.236 96.7424 664.388 93.9697 661.903 91.9091C659.418 89.8485 656.327 88.8182 652.63 88.8182C648.842 88.8182 645.691 89.8485 643.175 91.9091C640.691 93.9697 638.827 96.7424 637.585 100.227C636.372 103.682 635.766 107.545 635.766 111.818C635.766 116.061 636.372 119.909 637.585 123.364C638.827 126.818 640.691 129.576 643.175 131.636C645.691 133.667 648.842 134.682 652.63 134.682ZM715.134 105.591V146.5H698.68V76.6818H714.407V88.5455H715.225C716.831 84.6364 719.392 81.5303 722.907 79.2273C726.452 76.9242 730.831 75.7727 736.043 75.7727C740.861 75.7727 745.058 76.803 748.634 78.8636C752.24 80.9242 755.028 83.9091 756.998 87.8182C758.998 91.7273 759.983 96.4697 759.952 102.045V146.5H743.498V104.591C743.498 99.9242 742.286 96.2727 739.861 93.6364C737.467 91 734.149 89.6818 729.907 89.6818C727.028 89.6818 724.467 90.3182 722.225 91.5909C720.013 92.8333 718.27 94.6364 716.998 97C715.755 99.3636 715.134 102.227 715.134 105.591ZM868.96 83.1364C868.203 80.6818 867.157 78.4848 865.824 76.5455C864.521 74.5758 862.945 72.8939 861.097 71.5C859.279 70.1061 857.188 69.0606 854.824 68.3636C852.46 67.6364 849.885 67.2727 847.097 67.2727C842.097 67.2727 837.642 68.5303 833.733 71.0455C829.824 73.5606 826.748 77.2576 824.506 82.1364C822.294 86.9848 821.188 92.8939 821.188 99.8636C821.188 106.894 822.294 112.848 824.506 117.727C826.718 122.606 829.794 126.318 833.733 128.864C837.673 131.379 842.248 132.636 847.46 132.636C852.188 132.636 856.279 131.727 859.733 129.909C863.218 128.091 865.9 125.515 867.779 122.182C869.657 118.818 870.597 114.879 870.597 110.364L874.415 110.955H849.142V97.7727H886.915V108.955C886.915 116.924 885.218 123.818 881.824 129.636C878.43 135.455 873.763 139.939 867.824 143.091C861.885 146.212 855.066 147.773 847.37 147.773C838.794 147.773 831.263 145.848 824.779 142C818.324 138.121 813.279 132.621 809.642 125.5C806.036 118.348 804.233 109.864 804.233 100.045C804.233 92.5303 805.294 85.8182 807.415 79.9091C809.566 74 812.566 68.9848 816.415 64.8636C820.263 60.7121 824.779 57.5606 829.96 55.4091C835.142 53.2273 840.779 52.1364 846.87 52.1364C852.021 52.1364 856.824 52.8939 861.279 54.4091C865.733 55.8939 869.688 58.0151 873.142 60.7727C876.627 63.5303 879.491 66.803 881.733 70.5909C883.976 74.3788 885.445 78.5606 886.142 83.1364H868.96ZM901.215 146.5V76.6818H917.169V88.3182H917.896C919.169 84.2879 921.351 81.1818 924.442 79C927.563 76.7879 931.124 75.6818 935.124 75.6818C936.033 75.6818 937.048 75.7273 938.169 75.8182C939.321 75.8788 940.275 75.9848 941.033 76.1364V91.2727C940.336 91.0303 939.23 90.8182 937.715 90.6364C936.23 90.4242 934.79 90.3182 933.396 90.3182C930.396 90.3182 927.699 90.9697 925.305 92.2727C922.942 93.5455 921.078 95.3182 919.715 97.5909C918.351 99.8636 917.669 102.485 917.669 105.455V146.5H901.215ZM978.264 147.864C971.446 147.864 965.537 146.364 960.537 143.364C955.537 140.364 951.658 136.167 948.9 130.773C946.173 125.379 944.81 119.076 944.81 111.864C944.81 104.652 946.173 98.3333 948.9 92.9091C951.658 87.4848 955.537 83.2727 960.537 80.2727C965.537 77.2727 971.446 75.7727 978.264 75.7727C985.082 75.7727 990.991 77.2727 995.991 80.2727C1000.99 83.2727 1004.85 87.4848 1007.58 92.9091C1010.34 98.3333 1011.72 104.652 1011.72 111.864C1011.72 119.076 1010.34 125.379 1007.58 130.773C1004.85 136.167 1000.99 140.364 995.991 143.364C990.991 146.364 985.082 147.864 978.264 147.864ZM978.355 134.682C982.052 134.682 985.143 133.667 987.628 131.636C990.113 129.576 991.961 126.818 993.173 123.364C994.416 119.909 995.037 116.061 995.037 111.818C995.037 107.545 994.416 103.682 993.173 100.227C991.961 96.7424 990.113 93.9697 987.628 91.9091C985.143 89.8485 982.052 88.8182 978.355 88.8182C974.567 88.8182 971.416 89.8485 968.9 91.9091C966.416 93.9697 964.552 96.7424 963.31 100.227C962.097 103.682 961.491 107.545 961.491 111.818C961.491 116.061 962.097 119.909 963.31 123.364C964.552 126.818 966.416 129.576 968.9 131.636C971.416 133.667 974.567 134.682 978.355 134.682ZM1068.9 117.136V76.6818H1085.36V146.5H1069.4V134.091H1068.68C1067.1 138 1064.51 141.197 1060.9 143.682C1057.33 146.167 1052.92 147.409 1047.68 147.409C1043.1 147.409 1039.06 146.394 1035.54 144.364C1032.06 142.303 1029.33 139.318 1027.36 135.409C1025.39 131.47 1024.4 126.712 1024.4 121.136V76.6818H1040.86V118.591C1040.86 123.015 1042.07 126.53 1044.5 129.136C1046.92 131.742 1050.1 133.045 1054.04 133.045C1056.47 133.045 1058.81 132.455 1061.09 131.273C1063.36 130.091 1065.22 128.333 1066.68 126C1068.16 123.636 1068.9 120.682 1068.9 117.136ZM1117.45 105.591V146.5H1101V76.6818H1116.73V88.5455H1117.54C1119.15 84.6364 1121.71 81.5303 1125.23 79.2273C1128.77 76.9242 1133.15 75.7727 1138.36 75.7727C1143.18 75.7727 1147.38 76.803 1150.95 78.8636C1154.56 80.9242 1157.35 83.9091 1159.32 87.8182C1161.32 91.7273 1162.3 96.4697 1162.27 102.045V146.5H1145.82V104.591C1145.82 99.9242 1144.61 96.2727 1142.18 93.6364C1139.79 91 1136.47 89.6818 1132.23 89.6818C1129.35 89.6818 1126.79 90.3182 1124.54 91.5909C1122.33 92.8333 1120.59 94.6364 1119.32 97C1118.08 99.3636 1117.45 102.227 1117.45 105.591ZM1203.63 147.727C1198.14 147.727 1193.23 146.318 1188.9 143.5C1184.57 140.682 1181.14 136.591 1178.63 131.227C1176.11 125.864 1174.86 119.348 1174.86 111.682C1174.86 103.924 1176.13 97.3788 1178.67 92.0455C1181.25 86.6818 1184.72 82.6364 1189.08 79.9091C1193.45 77.1515 1198.31 75.7727 1203.67 75.7727C1207.77 75.7727 1211.13 76.4697 1213.77 77.8636C1216.4 79.2273 1218.49 80.8788 1220.04 82.8182C1221.58 84.7273 1222.78 86.5303 1223.63 88.2273H1224.31V53.4091H1240.81V146.5H1224.63V135.5H1223.63C1222.78 137.197 1221.55 139 1219.95 140.909C1218.34 142.788 1216.22 144.394 1213.58 145.727C1210.95 147.061 1207.63 147.727 1203.63 147.727ZM1208.22 134.227C1211.7 134.227 1214.67 133.288 1217.13 131.409C1219.58 129.5 1221.45 126.848 1222.72 123.455C1223.99 120.061 1224.63 116.106 1224.63 111.591C1224.63 107.076 1223.99 103.152 1222.72 99.8182C1221.48 96.4848 1219.63 93.8939 1217.17 92.0455C1214.75 90.197 1211.77 89.2727 1208.22 89.2727C1204.55 89.2727 1201.49 90.2273 1199.04 92.1364C1196.58 94.0455 1194.73 96.6818 1193.49 100.045C1192.25 103.409 1191.63 107.258 1191.63 111.591C1191.63 115.955 1192.25 119.848 1193.49 123.273C1194.77 126.667 1196.63 129.348 1199.08 131.318C1201.57 133.258 1204.61 134.227 1208.22 134.227Z" fill="white"/>
</svg>
