<svg width="200" height="200" viewBox="0 0 200 200" fill="none" xmlns="http://www.w3.org/2000/svg">
<rect width="200" height="200" rx="29.0004" fill="#404BBB"/>
<path d="M174.999 100.004C174.999 138.628 143.688 169.939 105.064 169.939C66.4399 169.939 35.1289 138.628 35.1289 100.004C35.1289 61.3796 66.4399 30.0686 105.064 30.0686C143.688 30.0686 174.999 61.3796 174.999 100.004Z" fill="#404BBB"/>
<path fill-rule="evenodd" clip-rule="evenodd" d="M105.064 160.534C138.494 160.534 165.595 133.434 165.595 100.004C165.595 66.5734 138.494 39.4729 105.064 39.4729C71.6337 39.4729 44.5332 66.5734 44.5332 100.004C44.5332 133.434 71.6337 160.534 105.064 160.534ZM105.064 169.939C143.688 169.939 174.999 138.628 174.999 100.004C174.999 61.3796 143.688 30.0686 105.064 30.0686C66.4399 30.0686 35.1289 61.3796 35.1289 100.004C35.1289 138.628 66.4399 169.939 105.064 169.939Z" fill="#F2F4F7"/>
<path d="M40.6074 100.002C40.6074 64.7869 69.1549 36.2394 104.37 36.2394H105.067V163.765H104.37C69.1549 163.765 40.6074 135.217 40.6074 100.002V100.002Z" fill="#F2F4F7"/>
<path fill-rule="evenodd" clip-rule="evenodd" d="M71.2452 82.1894C62.8263 83.9316 55.4622 89.1793 49.6782 95.5906L55.2644 100.63C60.3734 94.967 66.4126 90.8723 72.7698 89.5567C78.9607 88.2756 85.9135 89.5279 93.3163 95.4309L98.0069 89.5487C89.0261 82.3874 79.8302 80.4128 71.2452 82.1894Z" fill="#404BBB"/>
<path fill-rule="evenodd" clip-rule="evenodd" d="M139.615 82.1857C148.034 83.9279 155.398 89.1756 161.182 95.5869L155.596 100.626C150.487 94.9633 144.448 90.8686 138.091 89.5531C131.9 88.2719 124.947 89.5243 117.544 95.4273L112.853 89.545C121.834 82.3838 131.03 80.4091 139.615 82.1857Z" fill="#F2F4F7"/>
<path d="M66.2809 102L105.497 169.925H27.0644L66.2809 102Z" fill="#F2F4F7"/>
</svg>
